# xmcd CD database file
#
# Track frame offsets:
#	150
#	14101
#	28571
#	42816
#	58037
#	74090
#	90136
#
# Disc length: 1432 seconds
#
# Revision: 0
# Processed by: cddbd v1.5.2PL0 Copyright (c) Steve Scherf et al.
# Submitted via: CDex 1.84
#
DISCID=57059607
DTITLE=Alan Doyle - Rough Side Out
DYEAR=2020
DGENRE=Country
TTITLE0=We're Gonna Love Tonight
TTITLE1=We Don't Wanna Go Home (feat. Dean Brody)
TTITLE2=What The Whiskey Won't Do (feat. Jess Moskaluke)
TTITLE3=Anywhere You Wanna Go
TTITLE4=It's OK
TTITLE5=Paper In Fire
TTITLE6=I Gotta Go
EXTD=YEAR: 2020
EXTT0=
EXTT1=
EXTT2=
EXTT3=
EXTT4=
EXTT5=
EXTT6=
PLAYORDER=
